<mxfile host="Electron" modified="2024-04-18T17:47:18.795Z" agent="Mozilla/5.0 (Windows NT 10.0; Win64; x64) AppleWebKit/537.36 (KHTML, like Gecko) draw.io/24.1.0 Chrome/120.0.6099.109 Electron/28.1.0 Safari/537.36" etag="a2jShu-2O4j9hs_qD8vP" version="24.1.0" type="device">
  <diagram name="Page-1" id="o65vilw3Pug-pLH16Nbn">
    <mxGraphModel dx="2924" dy="1196" grid="1" gridSize="10" guides="1" tooltips="1" connect="1" arrows="1" fold="1" page="1" pageScale="1" pageWidth="850" pageHeight="1100" math="0" shadow="0">
      <root>
        <mxCell id="0" />
        <mxCell id="1" parent="0" />
        <mxCell id="j6p3N45GGgkrDa7yRjfB-12" style="edgeStyle=orthogonalEdgeStyle;rounded=0;orthogonalLoop=1;jettySize=auto;html=1;entryX=0;entryY=0.5;entryDx=0;entryDy=0;" parent="1" source="j6p3N45GGgkrDa7yRjfB-2" target="j6p3N45GGgkrDa7yRjfB-3" edge="1">
          <mxGeometry relative="1" as="geometry" />
        </mxCell>
        <mxCell id="j6p3N45GGgkrDa7yRjfB-2" value="&lt;font style=&quot;font-size: 20px;&quot;&gt;Tokenizer&lt;/font&gt;" style="rounded=1;whiteSpace=wrap;html=1;fillColor=#fff2cc;strokeColor=#d6b656;" parent="1" vertex="1">
          <mxGeometry x="120" y="240" width="120" height="80" as="geometry" />
        </mxCell>
        <mxCell id="j6p3N45GGgkrDa7yRjfB-13" style="edgeStyle=orthogonalEdgeStyle;rounded=0;orthogonalLoop=1;jettySize=auto;html=1;" parent="1" source="j6p3N45GGgkrDa7yRjfB-3" target="j6p3N45GGgkrDa7yRjfB-4" edge="1">
          <mxGeometry relative="1" as="geometry" />
        </mxCell>
        <mxCell id="j6p3N45GGgkrDa7yRjfB-3" value="&lt;font style=&quot;font-size: 20px;&quot;&gt;Embedding&lt;/font&gt;" style="rounded=1;whiteSpace=wrap;html=1;fillColor=#ffe6cc;strokeColor=#d79b00;" parent="1" vertex="1">
          <mxGeometry x="280" y="240" width="120" height="80" as="geometry" />
        </mxCell>
        <mxCell id="j6p3N45GGgkrDa7yRjfB-19" style="edgeStyle=orthogonalEdgeStyle;rounded=0;orthogonalLoop=1;jettySize=auto;html=1;entryX=0;entryY=0.5;entryDx=0;entryDy=0;" parent="1" source="j6p3N45GGgkrDa7yRjfB-4" target="j6p3N45GGgkrDa7yRjfB-17" edge="1">
          <mxGeometry relative="1" as="geometry" />
        </mxCell>
        <mxCell id="j6p3N45GGgkrDa7yRjfB-4" value="&lt;font style=&quot;font-size: 20px;&quot;&gt;Encoder/Decoder&lt;/font&gt;" style="rounded=1;whiteSpace=wrap;html=1;fillColor=#dae8fc;strokeColor=#6c8ebf;" parent="1" vertex="1">
          <mxGeometry x="440" y="220" width="160" height="120" as="geometry" />
        </mxCell>
        <mxCell id="j6p3N45GGgkrDa7yRjfB-16" style="edgeStyle=orthogonalEdgeStyle;rounded=0;orthogonalLoop=1;jettySize=auto;html=1;" parent="1" source="j6p3N45GGgkrDa7yRjfB-5" target="j6p3N45GGgkrDa7yRjfB-4" edge="1">
          <mxGeometry relative="1" as="geometry" />
        </mxCell>
        <mxCell id="j6p3N45GGgkrDa7yRjfB-5" value="&lt;font style=&quot;font-size: 20px;&quot;&gt;Encoder&lt;/font&gt;" style="rounded=1;whiteSpace=wrap;html=1;fillColor=#d5e8d4;strokeColor=#82b366;" parent="1" vertex="1">
          <mxGeometry x="460" y="80" width="120" height="80" as="geometry" />
        </mxCell>
        <mxCell id="j6p3N45GGgkrDa7yRjfB-11" style="edgeStyle=orthogonalEdgeStyle;rounded=0;orthogonalLoop=1;jettySize=auto;html=1;entryX=0;entryY=0.5;entryDx=0;entryDy=0;" parent="1" source="j6p3N45GGgkrDa7yRjfB-6" target="j6p3N45GGgkrDa7yRjfB-2" edge="1">
          <mxGeometry relative="1" as="geometry" />
        </mxCell>
        <mxCell id="j6p3N45GGgkrDa7yRjfB-6" value="&lt;h1 style=&quot;margin-top: 0px;&quot;&gt;string&lt;/h1&gt;&lt;p&gt;Lorem ipsum dolor sit amet, consectetur adipisicing elit, sed do eiusmod tempor incididunt ut labore et dolore magna aliqua.&lt;/p&gt;" style="text;html=1;whiteSpace=wrap;overflow=hidden;rounded=0;" parent="1" vertex="1">
          <mxGeometry x="-100" y="220" width="180" height="120" as="geometry" />
        </mxCell>
        <mxCell id="j6p3N45GGgkrDa7yRjfB-15" style="edgeStyle=orthogonalEdgeStyle;rounded=0;orthogonalLoop=1;jettySize=auto;html=1;entryX=0;entryY=0.5;entryDx=0;entryDy=0;" parent="1" source="j6p3N45GGgkrDa7yRjfB-10" target="j6p3N45GGgkrDa7yRjfB-5" edge="1">
          <mxGeometry relative="1" as="geometry" />
        </mxCell>
        <mxCell id="j6p3N45GGgkrDa7yRjfB-10" value="&lt;h1 style=&quot;margin-top: 0px;&quot;&gt;string&lt;/h1&gt;&lt;p&gt;Lorem ipsum dolor sit amet, consectetur adipisicing elit, sed do eiusmod tempor incididunt ut labore et dolore magna aliqua.&lt;/p&gt;" style="text;html=1;whiteSpace=wrap;overflow=hidden;rounded=0;" parent="1" vertex="1">
          <mxGeometry x="240" y="60" width="180" height="120" as="geometry" />
        </mxCell>
        <mxCell id="P9DelX1TIiJfCBBLpGAA-5" value="" style="edgeStyle=orthogonalEdgeStyle;rounded=0;orthogonalLoop=1;jettySize=auto;html=1;" parent="1" source="j6p3N45GGgkrDa7yRjfB-17" target="P9DelX1TIiJfCBBLpGAA-3" edge="1">
          <mxGeometry relative="1" as="geometry" />
        </mxCell>
        <mxCell id="j6p3N45GGgkrDa7yRjfB-17" value="&lt;b&gt;&lt;font style=&quot;font-size: 24px;&quot;&gt;Outputs&lt;br&gt;&lt;/font&gt;&lt;/b&gt;&lt;div&gt;&lt;b&gt;&lt;font style=&quot;font-size: 24px;&quot;&gt;(logits)&lt;/font&gt;&lt;/b&gt;&lt;/div&gt;" style="text;html=1;align=center;verticalAlign=middle;whiteSpace=wrap;rounded=0;" parent="1" vertex="1">
          <mxGeometry x="640" y="260" width="90" height="40" as="geometry" />
        </mxCell>
        <mxCell id="P9DelX1TIiJfCBBLpGAA-2" value="" style="edgeStyle=orthogonalEdgeStyle;rounded=0;orthogonalLoop=1;jettySize=auto;html=1;entryX=0;entryY=0.5;entryDx=0;entryDy=0;" parent="1" source="P9DelX1TIiJfCBBLpGAA-3" target="GBm3YbGNNbbOSWR1gSE9-1" edge="1">
          <mxGeometry relative="1" as="geometry">
            <mxPoint x="910" y="370" as="targetPoint" />
          </mxGeometry>
        </mxCell>
        <mxCell id="P9DelX1TIiJfCBBLpGAA-3" value="&lt;font style=&quot;font-size: 20px;&quot;&gt;Tokenizer&lt;/font&gt;" style="rounded=1;whiteSpace=wrap;html=1;fillColor=#fff2cc;strokeColor=#d6b656;" parent="1" vertex="1">
          <mxGeometry x="760" y="240" width="120" height="80" as="geometry" />
        </mxCell>
        <mxCell id="GBm3YbGNNbbOSWR1gSE9-1" value="&lt;b&gt;&lt;font style=&quot;font-size: 24px;&quot;&gt;Outputs&lt;br&gt;&lt;/font&gt;&lt;/b&gt;&lt;div&gt;&lt;b&gt;&lt;font style=&quot;font-size: 24px;&quot;&gt;(tokens)&lt;/font&gt;&lt;/b&gt;&lt;/div&gt;" style="text;html=1;align=center;verticalAlign=middle;whiteSpace=wrap;rounded=0;" vertex="1" parent="1">
          <mxGeometry x="920" y="260" width="90" height="40" as="geometry" />
        </mxCell>
      </root>
    </mxGraphModel>
  </diagram>
</mxfile>
